<mxGraphModel dx="1233" dy="788" grid="1" gridSize="10" guides="1" tooltips="1" connect="1" arrows="1" fold="1" page="1" pageScale="1" pageWidth="850" pageHeight="1100" math="0" shadow="0">
  <root>
    <mxCell id="0" />
    <mxCell id="1" parent="0" />
    <mxCell id="CL8gNvvTBkpj3dXNIgkR-19" style="edgeStyle=orthogonalEdgeStyle;rounded=0;orthogonalLoop=1;jettySize=auto;html=1;" parent="1" source="Xod4xSulPjWZgwVKyBh1-2" edge="1">
      <mxGeometry relative="1" as="geometry">
        <mxPoint x="425" y="360" as="targetPoint" />
      </mxGeometry>
    </mxCell>
    <mxCell id="Xod4xSulPjWZgwVKyBh1-2" value="Trimet API" style="html=1;dashed=0;whiteSpace=wrap;shape=mxgraph.dfd.start;fillColor=#f5f5f5;strokeColor=#666666;fontColor=#333333;" parent="1" vertex="1">
      <mxGeometry x="160" y="340" width="100" height="40" as="geometry" />
    </mxCell>
    <mxCell id="CL8gNvvTBkpj3dXNIgkR-24" style="edgeStyle=orthogonalEdgeStyle;rounded=0;orthogonalLoop=1;jettySize=auto;html=1;entryX=0;entryY=0.5;entryDx=0;entryDy=0;" parent="1" source="CL8gNvvTBkpj3dXNIgkR-13" target="CL8gNvvTBkpj3dXNIgkR-23" edge="1">
      <mxGeometry relative="1" as="geometry" />
    </mxCell>
    <mxCell id="CL8gNvvTBkpj3dXNIgkR-13" value="Staging Tables" style="shape=cylinder;whiteSpace=wrap;html=1;boundedLbl=1;backgroundOutline=1;fillColor=#dae8fc;strokeColor=#6c8ebf;" parent="1" vertex="1">
      <mxGeometry x="890" y="510" width="60" height="80" as="geometry" />
    </mxCell>
    <mxCell id="CL8gNvvTBkpj3dXNIgkR-26" style="edgeStyle=orthogonalEdgeStyle;rounded=0;orthogonalLoop=1;jettySize=auto;html=1;entryX=0;entryY=0.5;entryDx=0;entryDy=0;" parent="1" source="CL8gNvvTBkpj3dXNIgkR-23" target="CL8gNvvTBkpj3dXNIgkR-25" edge="1">
      <mxGeometry relative="1" as="geometry" />
    </mxCell>
    <mxCell id="CL8gNvvTBkpj3dXNIgkR-23" value="ETL" style="shape=ellipse;html=1;dashed=0;whiteSpace=wrap;perimeter=ellipsePerimeter;fillColor=#dae8fc;strokeColor=#6c8ebf;" parent="1" vertex="1">
      <mxGeometry x="995" y="527.5" width="50" height="45" as="geometry" />
    </mxCell>
    <mxCell id="CL8gNvvTBkpj3dXNIgkR-28" style="edgeStyle=orthogonalEdgeStyle;rounded=0;orthogonalLoop=1;jettySize=auto;html=1;entryX=0;entryY=0.5;entryDx=0;entryDy=0;" parent="1" source="CL8gNvvTBkpj3dXNIgkR-25" target="CL8gNvvTBkpj3dXNIgkR-27" edge="1">
      <mxGeometry relative="1" as="geometry" />
    </mxCell>
    <mxCell id="CL8gNvvTBkpj3dXNIgkR-25" value="Hub Tables" style="shape=cylinder;whiteSpace=wrap;html=1;boundedLbl=1;backgroundOutline=1;fillColor=#dae8fc;strokeColor=#6c8ebf;" parent="1" vertex="1">
      <mxGeometry x="1085" y="510" width="60" height="80" as="geometry" />
    </mxCell>
    <mxCell id="CL8gNvvTBkpj3dXNIgkR-27" value="BI Reporting" style="shape=parallelogram;perimeter=parallelogramPerimeter;whiteSpace=wrap;html=1;dashed=0;fillColor=#f8cecc;strokeColor=#b85450;" parent="1" vertex="1">
      <mxGeometry x="1195" y="525" width="100" height="50" as="geometry" />
    </mxCell>
    <mxCell id="sVYrODT6d9CqoMSy0Qfs-3" value="broker" style="html=1;dashed=0;whiteSpace=wrap;" parent="1" vertex="1">
      <mxGeometry x="535" y="310" width="100" height="50" as="geometry" />
    </mxCell>
    <mxCell id="sVYrODT6d9CqoMSy0Qfs-20" style="edgeStyle=orthogonalEdgeStyle;rounded=0;orthogonalLoop=1;jettySize=auto;html=1;entryX=0;entryY=0.5;entryDx=0;entryDy=0;" parent="1" source="sVYrODT6d9CqoMSy0Qfs-4" target="sVYrODT6d9CqoMSy0Qfs-11" edge="1">
      <mxGeometry relative="1" as="geometry">
        <Array as="points">
          <mxPoint x="580" y="465" />
        </Array>
      </mxGeometry>
    </mxCell>
    <mxCell id="sVYrODT6d9CqoMSy0Qfs-21" style="edgeStyle=orthogonalEdgeStyle;rounded=0;orthogonalLoop=1;jettySize=auto;html=1;entryX=0;entryY=0.5;entryDx=0;entryDy=0;" parent="1" source="sVYrODT6d9CqoMSy0Qfs-4" target="sVYrODT6d9CqoMSy0Qfs-5" edge="1">
      <mxGeometry relative="1" as="geometry">
        <Array as="points">
          <mxPoint x="580" y="550" />
        </Array>
      </mxGeometry>
    </mxCell>
    <mxCell id="sVYrODT6d9CqoMSy0Qfs-4" value="schema-registry" style="html=1;dashed=0;whiteSpace=wrap;" parent="1" vertex="1">
      <mxGeometry x="535" y="360" width="100" height="50" as="geometry" />
    </mxCell>
    <mxCell id="sVYrODT6d9CqoMSy0Qfs-22" style="edgeStyle=orthogonalEdgeStyle;rounded=0;orthogonalLoop=1;jettySize=auto;html=1;entryX=0;entryY=0.5;entryDx=0;entryDy=0;" parent="1" source="sVYrODT6d9CqoMSy0Qfs-5" edge="1">
      <mxGeometry relative="1" as="geometry">
        <mxPoint x="890" y="550" as="targetPoint" />
      </mxGeometry>
    </mxCell>
    <mxCell id="sVYrODT6d9CqoMSy0Qfs-5" value="connect" style="html=1;dashed=0;whiteSpace=wrap;" parent="1" vertex="1">
      <mxGeometry x="690" y="525" width="100" height="50" as="geometry" />
    </mxCell>
    <mxCell id="sVYrODT6d9CqoMSy0Qfs-12" style="edgeStyle=orthogonalEdgeStyle;rounded=0;orthogonalLoop=1;jettySize=auto;html=1;entryX=0;entryY=0;entryDx=0;entryDy=0;" parent="1" source="sVYrODT6d9CqoMSy0Qfs-6" target="sVYrODT6d9CqoMSy0Qfs-4" edge="1">
      <mxGeometry relative="1" as="geometry">
        <Array as="points">
          <mxPoint x="515" y="360" />
          <mxPoint x="515" y="360" />
        </Array>
      </mxGeometry>
    </mxCell>
    <mxCell id="sVYrODT6d9CqoMSy0Qfs-6" value="datastreamer" style="html=1;dashed=0;whiteSpace=wrap;" parent="1" vertex="1">
      <mxGeometry x="350" y="335" width="100" height="50" as="geometry" />
    </mxCell>
    <mxCell id="sVYrODT6d9CqoMSy0Qfs-9" value="ksqldb-server" style="html=1;dashed=0;whiteSpace=wrap;" parent="1" vertex="1">
      <mxGeometry x="680" y="335" width="100" height="50" as="geometry" />
    </mxCell>
    <mxCell id="sVYrODT6d9CqoMSy0Qfs-13" style="edgeStyle=orthogonalEdgeStyle;rounded=0;orthogonalLoop=1;jettySize=auto;html=1;entryX=1;entryY=0.5;entryDx=0;entryDy=0;" parent="1" source="sVYrODT6d9CqoMSy0Qfs-10" target="sVYrODT6d9CqoMSy0Qfs-9" edge="1">
      <mxGeometry relative="1" as="geometry" />
    </mxCell>
    <mxCell id="sVYrODT6d9CqoMSy0Qfs-10" value="ksqldb-cli (ETL)" style="html=1;dashed=0;whiteSpace=wrap;" parent="1" vertex="1">
      <mxGeometry x="820" y="335" width="100" height="50" as="geometry" />
    </mxCell>
    <mxCell id="sVYrODT6d9CqoMSy0Qfs-11" value="control-center" style="html=1;dashed=0;whiteSpace=wrap;fillColor=#f8cecc;strokeColor=#b85450;" parent="1" vertex="1">
      <mxGeometry x="690" y="440" width="100" height="50" as="geometry" />
    </mxCell>
    <mxCell id="sVYrODT6d9CqoMSy0Qfs-15" value="" style="endArrow=classic;startArrow=classic;html=1;rounded=0;exitX=1;exitY=0;exitDx=0;exitDy=0;entryX=0;entryY=0.5;entryDx=0;entryDy=0;" parent="1" source="sVYrODT6d9CqoMSy0Qfs-4" target="sVYrODT6d9CqoMSy0Qfs-9" edge="1">
      <mxGeometry width="50" height="50" relative="1" as="geometry">
        <mxPoint x="700" y="450" as="sourcePoint" />
        <mxPoint x="750" y="400" as="targetPoint" />
      </mxGeometry>
    </mxCell>
    <mxCell id="sVYrODT6d9CqoMSy0Qfs-18" value="realtime-visualizer" style="html=1;dashed=0;whiteSpace=wrap;fillColor=#f8cecc;strokeColor=#b85450;" parent="1" vertex="1">
      <mxGeometry x="680" y="250" width="100" height="50" as="geometry" />
    </mxCell>
    <mxCell id="cLKKJeNiV3lQfkevrg-o-1" value="" style="endArrow=classic;html=1;rounded=0;exitX=0.5;exitY=1;exitDx=0;exitDy=0;entryX=0.5;entryY=0;entryDx=0;entryDy=0;" parent="1" source="sVYrODT6d9CqoMSy0Qfs-18" target="sVYrODT6d9CqoMSy0Qfs-9" edge="1">
      <mxGeometry width="50" height="50" relative="1" as="geometry">
        <mxPoint x="780" y="280" as="sourcePoint" />
        <mxPoint x="720" y="280" as="targetPoint" />
      </mxGeometry>
    </mxCell>
    <mxCell id="cLKKJeNiV3lQfkevrg-o-13" style="edgeStyle=orthogonalEdgeStyle;rounded=0;orthogonalLoop=1;jettySize=auto;html=1;exitX=1;exitY=0.5;exitDx=0;exitDy=0;exitPerimeter=0;entryX=0;entryY=0.5;entryDx=0;entryDy=0;" parent="1" source="cLKKJeNiV3lQfkevrg-o-2" target="cLKKJeNiV3lQfkevrg-o-7" edge="1">
      <mxGeometry relative="1" as="geometry" />
    </mxCell>
    <mxCell id="cLKKJeNiV3lQfkevrg-o-2" value="S3" style="shape=cylinder3;whiteSpace=wrap;html=1;boundedLbl=1;backgroundOutline=1;size=15;fillColor=#fff2cc;strokeColor=#d6b656;" parent="1" vertex="1">
      <mxGeometry x="890" y="620" width="60" height="80" as="geometry" />
    </mxCell>
    <mxCell id="cLKKJeNiV3lQfkevrg-o-4" value="" style="edgeStyle=elbowEdgeStyle;elbow=horizontal;endArrow=classic;html=1;curved=0;rounded=0;endSize=8;startSize=8;exitX=0.5;exitY=1;exitDx=0;exitDy=0;entryX=0;entryY=0.5;entryDx=0;entryDy=0;entryPerimeter=0;" parent="1" source="sVYrODT6d9CqoMSy0Qfs-5" target="cLKKJeNiV3lQfkevrg-o-2" edge="1">
      <mxGeometry width="50" height="50" relative="1" as="geometry">
        <mxPoint x="715" y="690" as="sourcePoint" />
        <mxPoint x="765" y="640" as="targetPoint" />
        <Array as="points">
          <mxPoint x="740" y="610" />
        </Array>
      </mxGeometry>
    </mxCell>
    <mxCell id="cLKKJeNiV3lQfkevrg-o-7" value="Glue" style="rounded=0;whiteSpace=wrap;html=1;fillColor=#fff2cc;strokeColor=#d6b656;" parent="1" vertex="1">
      <mxGeometry x="985" y="640" width="70" height="40" as="geometry" />
    </mxCell>
    <mxCell id="cLKKJeNiV3lQfkevrg-o-8" value="Athena" style="rounded=0;whiteSpace=wrap;html=1;fillColor=#fff2cc;strokeColor=#d6b656;" parent="1" vertex="1">
      <mxGeometry x="1140" y="610" width="70" height="40" as="geometry" />
    </mxCell>
    <mxCell id="cLKKJeNiV3lQfkevrg-o-9" value="Glue ETL" style="rounded=0;whiteSpace=wrap;html=1;fillColor=#fff2cc;strokeColor=#d6b656;" parent="1" vertex="1">
      <mxGeometry x="1140" y="660" width="70" height="40" as="geometry" />
    </mxCell>
    <mxCell id="cLKKJeNiV3lQfkevrg-o-11" value="" style="edgeStyle=elbowEdgeStyle;elbow=horizontal;endArrow=classic;html=1;curved=0;rounded=0;endSize=8;startSize=8;entryX=0;entryY=0.5;entryDx=0;entryDy=0;exitX=1;exitY=0.25;exitDx=0;exitDy=0;" parent="1" source="cLKKJeNiV3lQfkevrg-o-7" target="cLKKJeNiV3lQfkevrg-o-8" edge="1">
      <mxGeometry width="50" height="50" relative="1" as="geometry">
        <mxPoint x="1080" y="670" as="sourcePoint" />
        <mxPoint x="1060" y="730" as="targetPoint" />
      </mxGeometry>
    </mxCell>
    <mxCell id="cLKKJeNiV3lQfkevrg-o-12" value="" style="edgeStyle=elbowEdgeStyle;elbow=horizontal;endArrow=classic;html=1;curved=0;rounded=0;endSize=8;startSize=8;entryX=0;entryY=0.5;entryDx=0;entryDy=0;exitX=1;exitY=0.75;exitDx=0;exitDy=0;" parent="1" source="cLKKJeNiV3lQfkevrg-o-7" target="cLKKJeNiV3lQfkevrg-o-9" edge="1">
      <mxGeometry width="50" height="50" relative="1" as="geometry">
        <mxPoint x="1060" y="710" as="sourcePoint" />
        <mxPoint x="1150" y="720" as="targetPoint" />
      </mxGeometry>
    </mxCell>
    <mxCell id="xc_1w7f41K8TKfR_YDPL-1" style="edgeStyle=orthogonalEdgeStyle;rounded=0;orthogonalLoop=1;jettySize=auto;html=1;exitX=0.5;exitY=0;exitDx=0;exitDy=0;exitPerimeter=0;entryX=0.5;entryY=1;entryDx=0;entryDy=0;" edge="1" parent="1" source="cLKKJeNiV3lQfkevrg-o-2" target="CL8gNvvTBkpj3dXNIgkR-13">
      <mxGeometry relative="1" as="geometry">
        <mxPoint x="920" y="600" as="targetPoint" />
        <mxPoint x="800" y="560" as="sourcePoint" />
      </mxGeometry>
    </mxCell>
  </root>
</mxGraphModel>
